<mxfile host="65bd71144e">
    <diagram name="펫 보호소 포털 UC 완전 최적화" id="0">
        <mxGraphModel dx="1216" dy="779" grid="1" gridSize="10" guides="1" tooltips="1" connect="1" arrows="1" fold="1" page="1" pageScale="1" pageWidth="827" pageHeight="1169" math="0" shadow="0">
            <root>
                <mxCell id="0"/>
                <mxCell id="1" parent="0"/>
                <mxCell id="2" style="edgeStyle=none;html=1;" edge="1" parent="1" source="Guest" target="UC_SearchShelter">
                    <mxGeometry relative="1" as="geometry"/>
                </mxCell>
                <mxCell id="Guest" value="방문자(게스트)" style="shape=actor;verticalLabelPosition=bottom;verticalAlign=top;" parent="1" vertex="1">
                    <mxGeometry x="20" y="20" width="40" height="60" as="geometry"/>
                </mxCell>
                <mxCell id="3" style="edgeStyle=none;html=1;" edge="1" parent="1" source="User" target="UC_SearchShelter">
                    <mxGeometry relative="1" as="geometry">
                        <mxPoint x="100" y="50" as="targetPoint"/>
                    </mxGeometry>
                </mxCell>
                <mxCell id="User" value="회원" style="shape=actor;verticalLabelPosition=bottom;verticalAlign=top;" parent="1" vertex="1">
                    <mxGeometry x="20" y="120" width="40" height="60" as="geometry"/>
                </mxCell>
                <mxCell id="4" style="edgeStyle=none;html=1;" edge="1" parent="1" target="UC_SearchShelter">
                    <mxGeometry relative="1" as="geometry">
                        <mxPoint x="60" y="221.42857142857144" as="sourcePoint"/>
                    </mxGeometry>
                </mxCell>
                <mxCell id="5" style="edgeStyle=none;html=1;" edge="1" parent="1" target="UC_SearchShelter">
                    <mxGeometry relative="1" as="geometry">
                        <mxPoint x="54" y="320" as="sourcePoint"/>
                    </mxGeometry>
                </mxCell>
                <mxCell id="6" style="edgeStyle=none;html=1;" edge="1" parent="1" target="UC_SearchShelter">
                    <mxGeometry relative="1" as="geometry">
                        <mxPoint x="50.5" y="420" as="sourcePoint"/>
                    </mxGeometry>
                </mxCell>
                <mxCell id="7" style="edgeStyle=none;html=1;" edge="1" parent="1" source="Shelter" target="UC_SearchShelter">
                    <mxGeometry relative="1" as="geometry"/>
                </mxCell>
                <mxCell id="Shelter" value="보호소 담당자" style="shape=actor;verticalLabelPosition=bottom;verticalAlign=top;" parent="1" vertex="1">
                    <mxGeometry x="20" y="520" width="40" height="60" as="geometry"/>
                </mxCell>
                <mxCell id="8" style="edgeStyle=none;html=1;" edge="1" parent="1" source="Admin" target="UC_SearchShelter">
                    <mxGeometry relative="1" as="geometry"/>
                </mxCell>
                <mxCell id="Admin" value="관리자" style="shape=actor;verticalLabelPosition=bottom;verticalAlign=top;" parent="1" vertex="1">
                    <mxGeometry x="20" y="620" width="40" height="60" as="geometry"/>
                </mxCell>
                <mxCell id="Map" value="지도/주소" style="shape=rectangle;fillColor=#f0f0f0;" parent="1" vertex="1">
                    <mxGeometry x="700" y="20" width="120" height="60" as="geometry"/>
                </mxCell>
                <mxCell id="PG" value="결제(PG)" style="shape=rectangle;fillColor=#f0f0f0;" parent="1" vertex="1">
                    <mxGeometry x="700" y="100" width="120" height="60" as="geometry"/>
                </mxCell>
                <mxCell id="KYC" value="본인인증" style="shape=rectangle;fillColor=#f0f0f0;" parent="1" vertex="1">
                    <mxGeometry x="700" y="180" width="120" height="60" as="geometry"/>
                </mxCell>
                <mxCell id="Notify" value="메일/SMS" style="shape=rectangle;fillColor=#f0f0f0;" parent="1" vertex="1">
                    <mxGeometry x="700" y="260" width="120" height="60" as="geometry"/>
                </mxCell>
                <mxCell id="UC_SearchShelter" value="보호소 목록/검색" style="shape=ellipse;" parent="1" vertex="1">
                    <mxGeometry x="110" y="20" width="140" height="60" as="geometry"/>
                </mxCell>
                <mxCell id="UC_BrowseAnimals" value="동물 목록/검색/필터" style="shape=ellipse;" parent="1" vertex="1">
                    <mxGeometry x="210" y="200" width="140" height="60" as="geometry"/>
                </mxCell>
                <mxCell id="UC_ViewAnimal" value="동물 프로필 보기" style="shape=ellipse;" parent="1" vertex="1">
                    <mxGeometry x="210" y="320" width="140" height="60" as="geometry"/>
                </mxCell>
                <mxCell id="UC_ViewShelter" value="보호소 상세 보기" style="shape=ellipse;" parent="1" vertex="1">
                    <mxGeometry x="210" y="440" width="140" height="60" as="geometry"/>
                </mxCell>
                <mxCell id="UC_Adopt" value="입양 신청" style="shape=ellipse;" parent="1" vertex="1">
                    <mxGeometry x="400" y="90" width="140" height="60" as="geometry"/>
                </mxCell>
                <mxCell id="UC_Donate" value="후원하기" style="shape=ellipse;" parent="1" vertex="1">
                    <mxGeometry x="400" y="170" width="140" height="60" as="geometry"/>
                </mxCell>
                <mxCell id="UC_Volunteer" value="봉사 신청" style="shape=ellipse;" parent="1" vertex="1">
                    <mxGeometry x="400" y="250" width="140" height="60" as="geometry"/>
                </mxCell>
                <mxCell id="UC_Wishlist" value="위시리스트 물품 기부" style="shape=ellipse;" parent="1" vertex="1">
                    <mxGeometry x="400" y="330" width="140" height="60" as="geometry"/>
                </mxCell>
                <mxCell id="UC_TrackStatus" value="신청 진행상태 확인" style="shape=ellipse;" parent="1" vertex="1">
                    <mxGeometry x="400" y="410" width="140" height="60" as="geometry"/>
                </mxCell>
                <mxCell id="UC_Receipt" value="기부 영수증/내역 조회" style="shape=ellipse;" parent="1" vertex="1">
                    <mxGeometry x="400" y="490" width="140" height="60" as="geometry"/>
                </mxCell>
                <mxCell id="e1" style="edgeStyle=orthogonalEdgeStyle;rounded=0;endArrow=classic;" parent="1" source="Guest" target="UC_SearchShelter" edge="1"/>
                <mxCell id="e2" style="edgeStyle=orthogonalEdgeStyle;rounded=0;endArrow=classic;" parent="1" source="Guest" target="UC_BrowseAnimals" edge="1"/>
                <mxCell id="e3" style="edgeStyle=orthogonalEdgeStyle;rounded=0;endArrow=classic;" parent="1" source="Guest" target="UC_ViewAnimal" edge="1"/>
                <mxCell id="e4" style="edgeStyle=orthogonalEdgeStyle;rounded=0;endArrow=classic;" parent="1" source="Guest" target="UC_ViewShelter" edge="1"/>
                <mxCell id="e5" style="edgeStyle=orthogonalEdgeStyle;rounded=0;endArrow=classic;" parent="1" source="User" target="UC_Adopt" edge="1"/>
                <mxCell id="e6" style="edgeStyle=orthogonalEdgeStyle;rounded=0;endArrow=classic;" parent="1" source="User" target="UC_Donate" edge="1"/>
                <mxCell id="e7" style="edgeStyle=orthogonalEdgeStyle;rounded=0;endArrow=classic;" parent="1" source="User" target="UC_Volunteer" edge="1"/>
                <mxCell id="e8" style="edgeStyle=orthogonalEdgeStyle;rounded=0;endArrow=classic;" parent="1" source="User" target="UC_Wishlist" edge="1"/>
                <mxCell id="e9" style="edgeStyle=orthogonalEdgeStyle;rounded=0;endArrow=classic;" parent="1" source="User" target="UC_TrackStatus" edge="1"/>
                <mxCell id="e10" style="edgeStyle=orthogonalEdgeStyle;rounded=0;endArrow=classic;" parent="1" source="User" target="UC_Receipt" edge="1"/>
                <mxCell id="e11" style="edgeStyle=orthogonalEdgeStyle;rounded=0;endArrow=classic;" parent="1" source="Adopter" target="UC_Adopt" edge="1"/>
                <mxCell id="e12" style="edgeStyle=orthogonalEdgeStyle;rounded=0;endArrow=classic;" parent="1" source="Donor" target="UC_Donate" edge="1"/>
                <mxCell id="e13" style="edgeStyle=orthogonalEdgeStyle;rounded=0;endArrow=classic;" parent="1" source="Volunteer" target="UC_Volunteer" edge="1"/>
                <mxCell id="e14" style="edgeStyle=orthogonalEdgeStyle;rounded=0;endArrow=classic;" parent="1" source="Shelter" edge="1"/>
                <mxCell id="e15" style="edgeStyle=orthogonalEdgeStyle;rounded=0;endArrow=classic;" parent="1" source="Shelter" edge="1"/>
                <mxCell id="e16" style="edgeStyle=orthogonalEdgeStyle;rounded=0;endArrow=classic;" parent="1" source="Shelter" edge="1"/>
                <mxCell id="e17" style="edgeStyle=orthogonalEdgeStyle;rounded=0;endArrow=classic;" parent="1" source="Shelter" edge="1"/>
                <mxCell id="e18" style="edgeStyle=orthogonalEdgeStyle;rounded=0;endArrow=classic;" parent="1" source="Shelter" edge="1"/>
                <mxCell id="e19" style="edgeStyle=orthogonalEdgeStyle;rounded=0;endArrow=classic;" parent="1" source="Shelter" edge="1"/>
                <mxCell id="e20" style="edgeStyle=orthogonalEdgeStyle;rounded=0;endArrow=classic;" parent="1" source="Admin" edge="1"/>
                <mxCell id="e21" style="edgeStyle=orthogonalEdgeStyle;rounded=0;endArrow=classic;" parent="1" source="Admin" edge="1"/>
                <mxCell id="e22" style="edgeStyle=orthogonalEdgeStyle;rounded=0;endArrow=classic;" parent="1" source="Admin" edge="1"/>
                <mxCell id="e23" style="edgeStyle=orthogonalEdgeStyle;rounded=0;endArrow=classic;" parent="1" source="Admin" edge="1"/>
                <mxCell id="e24" style="edgeStyle=orthogonalEdgeStyle;rounded=0;endArrow=classic;dashed=1;" parent="1" source="UC_Donate" edge="1"/>
                <mxCell id="e25" style="edgeStyle=orthogonalEdgeStyle;rounded=0;endArrow=classic;dashed=1;" parent="1" source="UC_Adopt" edge="1"/>
                <mxCell id="e26" style="edgeStyle=orthogonalEdgeStyle;rounded=0;endArrow=classic;dashed=1;" parent="1" source="UC_Volunteer" edge="1"/>
                <mxCell id="e27" style="edgeStyle=orthogonalEdgeStyle;rounded=0;endArrow=classic;dashed=1;" parent="1" source="UC_Adopt" edge="1"/>
                <mxCell id="e28" style="edgeStyle=orthogonalEdgeStyle;rounded=0;endArrow=classic;dashed=1;" parent="1" edge="1"/>
                <mxCell id="e29" style="edgeStyle=orthogonalEdgeStyle;rounded=0;endArrow=classic;" parent="1" target="PG" edge="1"/>
                <mxCell id="e30" style="edgeStyle=orthogonalEdgeStyle;rounded=0;endArrow=classic;" parent="1" target="KYC" edge="1"/>
                <mxCell id="e31" style="edgeStyle=orthogonalEdgeStyle;rounded=0;endArrow=classic;" parent="1" target="Notify" edge="1"/>
                <mxCell id="e32" style="edgeStyle=orthogonalEdgeStyle;rounded=0;endArrow=classic;" parent="1" source="UC_ViewShelter" edge="1"/>
                <mxCell id="e33" style="edgeStyle=orthogonalEdgeStyle;rounded=0;endArrow=classic;" parent="1" source="UC_ViewShelter" target="Map" edge="1"/>
                <mxCell id="9" value="게스트(비회원)" style="shape=umlActor;verticalLabelPosition=bottom;verticalAlign=top;html=1;outlineConnect=0;" vertex="1" parent="1">
                    <mxGeometry x="165" y="600" width="30" height="60" as="geometry"/>
                </mxCell>
                <mxCell id="10" value="Actor" style="shape=umlActor;verticalLabelPosition=bottom;verticalAlign=top;html=1;outlineConnect=0;" vertex="1" parent="1">
                    <mxGeometry x="670" y="585" width="30" height="60" as="geometry"/>
                </mxCell>
                <mxCell id="11" value="Actor" style="shape=umlActor;verticalLabelPosition=bottom;verticalAlign=top;html=1;outlineConnect=0;" vertex="1" parent="1">
                    <mxGeometry x="600" y="590" width="30" height="60" as="geometry"/>
                </mxCell>
                <mxCell id="12" value="Actor" style="shape=umlActor;verticalLabelPosition=bottom;verticalAlign=top;html=1;outlineConnect=0;" vertex="1" parent="1">
                    <mxGeometry x="530" y="610" width="30" height="60" as="geometry"/>
                </mxCell>
                <mxCell id="13" value="Actor" style="shape=umlActor;verticalLabelPosition=bottom;verticalAlign=top;html=1;outlineConnect=0;" vertex="1" parent="1">
                    <mxGeometry x="440" y="600" width="30" height="60" as="geometry"/>
                </mxCell>
                <mxCell id="14" value="입양자/봉사자" style="shape=umlActor;verticalLabelPosition=bottom;verticalAlign=top;html=1;outlineConnect=0;" vertex="1" parent="1">
                    <mxGeometry x="360" y="600" width="30" height="60" as="geometry"/>
                </mxCell>
                <mxCell id="15" value="일반 회원" style="shape=umlActor;verticalLabelPosition=bottom;verticalAlign=top;html=1;outlineConnect=0;" vertex="1" parent="1">
                    <mxGeometry x="265" y="600" width="30" height="60" as="geometry"/>
                </mxCell>
            </root>
        </mxGraphModel>
    </diagram>
</mxfile>